<?xml version="1.0" encoding="utf-8"?>
<!-- Generator: Adobe Illustrator 13.0.2, SVG Export Plug-In . SVG Version: 6.00 Build 14948)  -->
<!DOCTYPE svg PUBLIC "-//W3C//DTD SVG 1.1//EN" "http://www.w3.org/Graphics/SVG/1.1/DTD/svg11.dtd">
<svg version="1.1"
	 id="svg2" sodipodi:docname="FB icon.svg" xmlns:cc="http://creativecommons.org/ns#" xmlns:inkscape="http://www.inkscape.org/namespaces/inkscape" xmlns:sodipodi="http://sodipodi.sourceforge.net/DTD/sodipodi-0.dtd" inkscape:version="0.48.3.1 r9886" xmlns:dc="http://purl.org/dc/elements/1.1/" xmlns:svg="http://www.w3.org/2000/svg" xmlns:rdf="http://www.w3.org/1999/02/22-rdf-syntax-ns#"
	 xmlns="http://www.w3.org/2000/svg" xmlns:xlink="http://www.w3.org/1999/xlink" x="0px" y="0px" width="250px" height="250px"
	 viewBox="0 0 250 250" enable-background="new 0 0 250 250" xml:space="preserve">
<sodipodi:namedview  id="namedview4" fit-margin-top="0" fit-margin-right="0" pagecolor="#ffffff" showgrid="false" showguides="true" inkscape:zoom="0.70710678" bordercolor="#666666" borderopacity="1" objecttolerance="10" inkscape:pageshadow="2" inkscape:cx="302.53802" guidetolerance="10" inkscape:window-width="1440" inkscape:window-height="876" fit-margin-bottom="0" inkscape:cy="185.66785" fit-margin-left="0" inkscape:pageopacity="0" inkscape:guide-bbox="true" gridtolerance="10" inkscape:window-y="24" inkscape:current-layer="g10" inkscape:window-x="0" inkscape:window-maximized="1">
	</sodipodi:namedview>
<g id="g10" transform="matrix(1.25,0,0,-1.25,-154.44141,400.6914)" inkscape:label="ink_ext_XXXXXX" inkscape:groupmode="layer">
	<g id="Facebook_icon" transform="matrix(0.07494146,0,0,0.07493443,30.960607,30.217322)" inkscape:label="#fbicon">
		<path id="Square" inkscape:label="#square" inkscape:connector-curvature="0" fill="#3D539F" d="M2135.742,2833.653
			c-28.96,0-52.422-14.231-52.422-31.799V2288.96c0-17.578,23.461-31.82,52.422-31.82h180.939h274.111h148.116h222.237h19.828
			c28.981,0,52.437,14.242,52.437,31.82v512.894c0,17.568-23.456,31.799-52.437,31.799H2135.742z"/>
	</g>
</g>
<g id="g10_1_" transform="matrix(1.25,0,0,-1.25,-154.44141,400.6914)" inkscape:label="ink_ext_XXXXXX" inkscape:groupmode="layer">
	<g id="Facebook_icon_1_" transform="matrix(0.07494146,0,0,0.07493443,30.960607,30.217322)" inkscape:label="#fbicon">
		<path id="Square_1_" inkscape:label="#square" inkscape:connector-curvature="0" fill="#3D539F" d="M2502.009,2831.698
			c-17.524,0-31.712-14.184-31.712-31.679v-510.986c0-17.515,14.188-31.715,31.712-31.715h109.446h165.797h89.591h134.418h12.01
			c17.514,0,31.712,14.2,31.712,31.715v510.986c0,17.495-14.199,31.679-31.712,31.679H2502.009z"/>
		<path id="F_1_" inkscape:label="#f" inkscape:connector-curvature="0" fill="#ECECEE" d="M2888.818,2744.919
			c31.712,0,58.963-2.335,66.907-3.399v-77.521l-45.932-0.042c-36.008,0-42.95-17.098-42.95-42.193v-55.356h85.88l-11.217-86.665
			h-74.663v-222.425h-89.591v222.425h-74.871v86.665h74.871v63.916C2777.251,2704.509,2822.579,2744.919,2888.818,2744.919
			L2888.818,2744.919z"/>
	</g>
</g>
</svg>
