<?xml version="1.0" encoding="utf-8"?>
<!-- Generator: Adobe Illustrator 13.0.2, SVG Export Plug-In . SVG Version: 6.00 Build 14948)  -->
<!DOCTYPE svg PUBLIC "-//W3C//DTD SVG 1.1//EN" "http://www.w3.org/Graphics/SVG/1.1/DTD/svg11.dtd">
<svg version="1.1" id="Layer_1" xmlns="http://www.w3.org/2000/svg" xmlns:xlink="http://www.w3.org/1999/xlink" x="0px" y="0px"
	 width="134.658px" height="131.646px" viewBox="0 0 134.658 131.646" enable-background="new 0 0 134.658 131.646"
	 xml:space="preserve">
<g>
	<path fill="#DC4A38" d="M109.025,38.447H24.759c-1.549,0-2.805,0.769-2.805,1.718v50.436c0,0.95,1.255,1.721,2.805,1.721h84.267
		c1.549,0,2.804-0.771,2.804-1.721V40.166C111.829,39.216,110.574,38.447,109.025,38.447z"/>
</g>
<g>
	<path fill="#DC4A38" d="M110.148,38.448H59.636c-0.93,0-1.682,0.769-1.682,1.718v50.436c0,0.95,0.752,1.721,1.682,1.721h50.513
		c0.929,0,1.681-0.771,1.681-1.721V40.167C111.829,39.217,111.077,38.448,110.148,38.448z"/>
	<g>
		<path fill="#FFFFFF" d="M86.236,68.015l-1.7-1.351c-0.518-0.439-1.225-1.019-1.225-2.08c0-1.066,0.707-1.743,1.322-2.37
			c1.979-1.594,3.958-3.291,3.958-6.867c0-3.676-2.263-5.61-3.346-6.528h2.922l3.068-1.971h-9.294c-2.55,0-6.225,0.617-8.916,2.889
			c-2.027,1.79-3.017,4.257-3.017,6.478c0,3.771,2.831,7.593,7.829,7.593c0.472,0,0.988-0.047,1.508-0.096
			c-0.233,0.581-0.47,1.064-0.47,1.886c0,1.497,0.753,2.416,1.416,3.286c-2.124,0.148-6.089,0.39-9.012,2.228
			c-2.784,1.692-3.631,4.157-3.631,5.896c0,3.58,3.3,6.915,10.141,6.915c8.112,0,12.407-4.592,12.407-9.137
			C90.199,71.446,88.312,69.803,86.236,68.015z M80.058,62.454c-4.059,0-5.896-5.366-5.896-8.604c0-1.26,0.233-2.562,1.035-3.579
			c0.757-0.967,2.075-1.596,3.305-1.596c3.913,0,5.941,5.415,5.941,8.896c0,0.872-0.094,2.416-1.178,3.531
			C82.505,61.878,81.235,62.454,80.058,62.454z M80.104,81.897c-5.047,0-8.301-2.469-8.301-5.902c0-3.433,3.018-4.595,4.055-4.978
			c1.98-0.683,4.529-0.778,4.953-0.778c0.472,0,0.708,0,1.084,0.049c3.586,2.611,5.145,3.914,5.145,6.387
			C87.04,79.668,84.634,81.897,80.104,81.897z"/>
		<polygon fill="#FFFFFF" points="98.148,62.381 98.148,57.546 95.813,57.546 95.813,62.381 91.095,62.381 91.095,64.795 
			95.813,64.795 95.813,69.659 98.148,69.659 98.148,64.795 102.89,64.795 102.89,62.381 		"/>
	</g>
</g>
</svg>
