<?xml version="1.0" encoding="utf-8"?>
<!-- Generator: Adobe Illustrator 13.0.2, SVG Export Plug-In . SVG Version: 6.00 Build 14948)  -->
<!DOCTYPE svg PUBLIC "-//W3C//DTD SVG 1.1//EN" "http://www.w3.org/Graphics/SVG/1.1/DTD/svg11.dtd">
<svg version="1.1" id="Layer_1" xmlns="http://www.w3.org/2000/svg" xmlns:xlink="http://www.w3.org/1999/xlink" x="0px" y="0px"
	 width="134.658px" height="131.646px" viewBox="0 0 134.658 131.646" enable-background="new 0 0 134.658 131.646"
	 xml:space="preserve">
<g>
	<path fill="#DC4A38" d="M92.023,38.447H41.51c-0.929,0-1.681,0.769-1.681,1.718v50.436c0,0.95,0.752,1.721,1.681,1.721h50.513
		c0.929,0,1.681-0.771,1.681-1.721V40.166C93.704,39.216,92.952,38.447,92.023,38.447z"/>
	<g>
		<path fill="#FFFFFF" d="M68.111,68.014l-1.7-1.351c-0.518-0.439-1.225-1.019-1.225-2.08c0-1.066,0.708-1.743,1.322-2.37
			c1.98-1.594,3.958-3.291,3.958-6.867c0-3.676-2.263-5.61-3.346-6.528h2.922l3.068-1.971h-9.293c-2.55,0-6.226,0.617-8.916,2.889
			c-2.028,1.79-3.017,4.257-3.017,6.478c0,3.771,2.831,7.593,7.829,7.593c0.472,0,0.988-0.047,1.508-0.096
			c-0.233,0.581-0.47,1.064-0.47,1.886c0,1.497,0.753,2.416,1.416,3.286c-2.124,0.148-6.088,0.39-9.012,2.228
			c-2.784,1.692-3.631,4.157-3.631,5.896c0,3.58,3.3,6.915,10.141,6.915c8.112,0,12.407-4.592,12.407-9.137
			C72.074,71.445,70.188,69.802,68.111,68.014z M61.933,62.453c-4.059,0-5.896-5.366-5.896-8.604c0-1.26,0.233-2.562,1.036-3.579
			c0.756-0.967,2.075-1.596,3.305-1.596c3.913,0,5.941,5.415,5.941,8.896c0,0.872-0.094,2.416-1.178,3.531
			C64.38,61.877,63.111,62.453,61.933,62.453z M61.979,81.896c-5.046,0-8.301-2.469-8.301-5.902c0-3.433,3.018-4.595,4.055-4.978
			c1.98-0.683,4.529-0.778,4.954-0.778c0.471,0,0.708,0,1.083,0.049c3.587,2.611,5.145,3.914,5.145,6.387
			C68.915,79.667,66.508,81.896,61.979,81.896z"/>
		<polygon fill="#FFFFFF" points="80.023,62.38 80.023,57.545 77.688,57.545 77.688,62.38 72.97,62.38 72.97,64.794 77.688,64.794 
			77.688,69.658 80.023,69.658 80.023,64.794 84.765,64.794 84.765,62.38 		"/>
	</g>
</g>
</svg>
