<?xml version="1.0" encoding="UTF-8" standalone="no"?>
<!-- Created with Inkscape (http://www.inkscape.org/) -->

<svg
   xmlns:dc="http://purl.org/dc/elements/1.1/"
   xmlns:cc="http://creativecommons.org/ns#"
   xmlns:rdf="http://www.w3.org/1999/02/22-rdf-syntax-ns#"
   xmlns:svg="http://www.w3.org/2000/svg"
   xmlns="http://www.w3.org/2000/svg"
   xmlns:sodipodi="http://sodipodi.sourceforge.net/DTD/sodipodi-0.dtd"
   xmlns:inkscape="http://www.inkscape.org/namespaces/inkscape"
   id="svg2"
   version="1.1"
   inkscape:version="0.48.3.1 r9886"
   width="249.99998"
   height="249.99998"
   xml:space="preserve"
   sodipodi:docname="FB icon.svg"><metadata
     id="metadata8"><rdf:RDF><cc:Work
         rdf:about=""><dc:format>image/svg+xml</dc:format><dc:type
           rdf:resource="http://purl.org/dc/dcmitype/StillImage" /><dc:title></dc:title></cc:Work></rdf:RDF></metadata><defs
     id="defs6" /><sodipodi:namedview
     pagecolor="#ffffff"
     bordercolor="#666666"
     borderopacity="1"
     objecttolerance="10"
     gridtolerance="10"
     guidetolerance="10"
     inkscape:pageopacity="0"
     inkscape:pageshadow="2"
     inkscape:window-width="1440"
     inkscape:window-height="876"
     id="namedview4"
     showgrid="false"
     showguides="true"
     inkscape:guide-bbox="true"
     fit-margin-top="0"
     fit-margin-left="0"
     fit-margin-right="0"
     fit-margin-bottom="0"
     inkscape:zoom="0.70710678"
     inkscape:cx="302.53802"
     inkscape:cy="185.66785"
     inkscape:window-x="0"
     inkscape:window-y="24"
     inkscape:window-maximized="1"
     inkscape:current-layer="g10" /><g
     id="g10"
     inkscape:groupmode="layer"
     inkscape:label="ink_ext_XXXXXX"
     transform="matrix(1.25,0,0,-1.25,-154.44141,400.6914)"><g
       id="Facebook_icon"
       transform="matrix(0.07494146,0,0,0.07493443,30.960607,30.217322)"
       inkscape:label="#fbicon"><path
         style="fill:#3d539f;fill-opacity:1;fill-rule:nonzero;stroke:none"
         d="m 1382.7813,3874.5313 c -81.38,0 -147.25,-65.88 -147.25,-147.25 l 0,-2374.5 c 0,-81.35 65.87,-147.25 147.25,-147.25 l 508.25,0 770,0 416,0 624.25,0 55.75,0 c 81.3504,0 147.2504,65.9 147.2496,147.25 l 0,2374.5 c 0,81.37 -65.9,147.25 -147.2496,147.25 l -2374.25,0 z"
         id="Square"
         inkscape:connector-curvature="0"
         inkscape:label="#square" /><path
         style="fill:#ececee;fill-opacity:1;fill-rule:nonzero;stroke:none"
         d="m 3179.0313,3471.2813 c 147.3,0 273.8408,-10.85 310.7504,-15.75 l 0,-360.25 -213.2496,-0.25 c -167.24,0 -199.5008,-79.38 -199.5008,-196 l 0,-257.25 398.7504,0 -52,-402.75 -346.7504,0 0,-1033.5 -415.9996,0 0,1033.5 -347.75,0 0,402.75 347.75,0 0,297 c 0,344.73 210.47,532.5 517.9996,532.5 z"
         id="F"
         inkscape:connector-curvature="0"
         inkscape:label="#f" /></g></g></svg>